<svg width="357" height="73" viewBox="0 0 357 73" fill="none" xmlns="http://www.w3.org/2000/svg">
<path d="M0 32.0305L31.2588 61.4367C33.7504 63.7074 37.6012 63.7074 40.0928 61.4367L67.5009 34.1877V64.843C67.5009 68.9303 64.1032 72.1092 60.0259 72.1092H7.47495C3.39769 72.1092 0 68.9303 0 64.843V43.2707V41V38.9563V32.0305Z" fill="white"/>
<path d="M21.7974 35.9562L34.6276 48.2025L61.1729 21.4834" stroke="#18D6B3" stroke-width="7.03134" stroke-linecap="round" stroke-linejoin="round"/>
<path d="M66.0029 2.10938C72.4077 2.10938 77.8971 7.59143 77.8971 13.9871" stroke="#18D6B3" stroke-width="4.21881" stroke-linecap="round"/>
<path d="M65.0879 9.4187C67.8326 9.4187 70.1199 11.7029 70.1199 14.4439" stroke="#18D6B3" stroke-width="4.21881" stroke-linecap="round"/>
<path d="M74.6779 24.0045C76.1854 24.0045 77.4067 22.7846 77.4067 21.2798C77.4067 19.775 76.1854 18.5552 74.6779 18.5552C73.171 18.5552 71.9497 19.775 71.9497 21.2798C71.9497 22.7846 73.171 24.0045 74.6779 24.0045Z" fill="#18D6B3"/>
<path d="M89.6123 66.1555C87.64 66.1555 85.942 65.7554 84.5188 64.9567C83.1041 64.1494 82.0135 63.0091 81.2478 61.536C80.4821 60.0545 80.0996 58.3024 80.0996 56.2799C80.0996 54.3073 80.4821 52.5761 81.2478 51.0863C82.0135 49.5965 83.0914 48.4354 84.4815 47.6031C85.8794 46.7708 87.5191 46.3547 89.4007 46.3547C90.6656 46.3547 91.8434 46.5586 92.9332 46.9664C94.0322 47.3659 94.9892 47.9693 95.8048 48.7767C96.6289 49.584 97.2702 50.5994 97.7279 51.8229C98.1856 53.0381 98.4142 54.4613 98.4142 56.0927V57.5534H82.2217V54.2574H93.4078C93.4078 53.4917 93.2412 52.8134 92.9086 52.2224C92.5753 51.6315 92.1134 51.1695 91.5227 50.8366C90.9398 50.4954 90.262 50.3248 89.4879 50.3248C88.6807 50.3248 87.9649 50.512 87.3405 50.8866C86.7245 51.2528 86.2415 51.748 85.892 52.3722C85.5426 52.9881 85.364 53.6748 85.3555 54.4322V57.5659C85.3555 58.5147 85.5299 59.3345 85.8794 60.0253C86.2373 60.7161 86.7414 61.2488 87.3904 61.6234C88.0394 61.9979 88.8093 62.1852 89.7002 62.1852C90.2908 62.1852 90.8323 62.1019 91.323 61.9354C91.8138 61.769 92.2343 61.5193 92.5838 61.1864C92.9332 60.8534 93.1997 60.4456 93.3832 59.9629L98.3016 60.2875C98.052 61.4694 97.5402 62.5014 96.766 63.3837C96.0003 64.2576 95.0103 64.9398 93.7953 65.4313C92.588 65.9136 91.1937 66.1555 89.6123 66.1555ZM101.885 65.7807V46.6044H106.954V49.9877H107.179C107.578 48.8641 108.244 47.9776 109.176 47.3284C110.108 46.6792 111.224 46.3547 112.522 46.3547C113.837 46.3547 114.956 46.6834 115.88 47.341C116.804 47.9902 117.42 48.8724 117.728 49.9877H117.928C118.319 48.889 119.027 48.0109 120.05 47.3534C121.082 46.6875 122.302 46.3547 123.708 46.3547C125.497 46.3547 126.95 46.9248 128.065 48.065C129.189 49.197 129.751 50.8033 129.751 52.8841V65.7807H124.445V53.9328C124.445 52.8675 124.162 52.0684 123.596 51.5358C123.029 51.0031 122.322 50.7367 121.473 50.7367C120.508 50.7367 119.755 51.0447 119.214 51.6606C118.673 52.2682 118.402 53.0714 118.402 54.0702V65.7807H113.246V53.8205C113.246 52.88 112.975 52.1308 112.435 51.5732C111.902 51.0155 111.199 50.7367 110.325 50.7367C109.734 50.7367 109.201 50.8866 108.726 51.1862C108.261 51.4775 107.89 51.8895 107.615 52.4222C107.341 52.9466 107.203 53.5624 107.203 54.2699V65.7807H101.885ZM139.42 66.1428C138.197 66.1428 137.106 65.9305 136.149 65.5058C135.192 65.0734 134.434 64.4363 133.877 63.5959C133.328 62.747 133.053 61.69 133.053 60.4248C133.053 59.3595 133.249 58.4648 133.64 57.7406C134.031 57.0165 134.564 56.4339 135.238 55.9927C135.912 55.5517 136.677 55.2187 137.535 54.994C138.401 54.7693 139.308 54.6112 140.256 54.5196C141.372 54.4031 142.271 54.2949 142.954 54.195C143.636 54.0868 144.131 53.9286 144.439 53.7206C144.746 53.5125 144.9 53.2045 144.9 52.7967V52.7218C144.9 51.9311 144.651 51.3194 144.152 50.8866C143.661 50.4537 142.961 50.2374 142.054 50.2374C141.097 50.2374 140.336 50.4496 139.77 50.8741C139.204 51.2902 138.829 51.8146 138.646 52.4471L133.727 52.0477C133.977 50.8824 134.468 49.8753 135.2 49.0264C135.933 48.1691 136.877 47.5115 138.034 47.0538C139.199 46.5877 140.548 46.3547 142.079 46.3547C143.145 46.3547 144.164 46.4795 145.138 46.7292C146.12 46.9788 146.99 47.3659 147.747 47.8902C148.513 48.4146 149.116 49.0888 149.557 49.9127C149.999 50.7284 150.219 51.7064 150.219 52.8466V65.7807H145.175V63.1215H145.026C144.718 63.7208 144.306 64.2493 143.79 64.707C143.273 65.1563 142.653 65.51 141.93 65.7681C141.206 66.0177 140.369 66.1428 139.42 66.1428ZM140.943 62.4723C141.726 62.4723 142.416 62.3184 143.015 62.0104C143.615 61.6941 144.085 61.2696 144.427 60.7369C144.768 60.2042 144.938 59.6008 144.938 58.9266V56.8917C144.772 56.9998 144.543 57.0998 144.251 57.1913C143.969 57.2746 143.648 57.3536 143.29 57.4285C142.932 57.4951 142.575 57.5575 142.217 57.6158C141.859 57.6657 141.534 57.7115 141.243 57.7531C140.618 57.8447 140.073 57.9903 139.607 58.19C139.141 58.3898 138.779 58.6603 138.521 59.0016C138.263 59.3345 138.134 59.7506 138.134 60.25C138.134 60.9742 138.396 61.5276 138.921 61.9105C139.453 62.285 140.128 62.4723 140.943 62.4723ZM154.346 65.7807V46.6044H159.664V65.7807H154.346ZM157.017 44.1323C156.227 44.1323 155.548 43.8702 154.982 43.3458C154.424 42.8132 154.146 42.1764 154.146 41.4357C154.146 40.7033 154.424 40.0749 154.982 39.5505C155.548 39.0178 156.227 38.7515 157.017 38.7515C157.808 38.7515 158.482 39.0178 159.04 39.5505C159.606 40.0749 159.888 40.7033 159.888 41.4357C159.888 42.1764 159.606 42.8132 159.04 43.3458C158.482 43.8702 157.808 44.1323 157.017 44.1323ZM169.243 40.2122V65.7807H163.924V40.2122H169.243ZM178.972 66.1428C177.748 66.1428 176.658 65.9305 175.701 65.5058C174.743 65.0734 173.986 64.4363 173.428 63.5959C172.879 62.747 172.604 61.69 172.604 60.4248C172.604 59.3595 172.8 58.4648 173.191 57.7406C173.582 57.0165 174.115 56.4339 174.789 55.9927C175.463 55.5517 176.229 55.2187 177.086 54.994C177.952 54.7693 178.859 54.6112 179.808 54.5196C180.923 54.4031 181.822 54.2949 182.505 54.195C183.187 54.0868 183.683 53.9286 183.991 53.7206C184.298 53.5125 184.452 53.2045 184.452 52.7967V52.7218C184.452 51.9311 184.202 51.3194 183.703 50.8866C183.212 50.4537 182.513 50.2374 181.605 50.2374C180.649 50.2374 179.887 50.4496 179.321 50.8741C178.755 51.2902 178.38 51.8146 178.197 52.4471L173.278 52.0477C173.528 50.8824 174.019 49.8753 174.751 49.0264C175.484 48.1691 176.428 47.5115 177.586 47.0538C178.751 46.5877 180.099 46.3547 181.631 46.3547C182.696 46.3547 183.716 46.4795 184.689 46.7292C185.672 46.9788 186.542 47.3659 187.299 47.8902C188.065 48.4146 188.668 49.0888 189.109 49.9127C189.55 50.7284 189.77 51.7064 189.77 52.8466V65.7807H184.727V63.1215H184.577C184.269 63.7208 183.857 64.2493 183.341 64.707C182.825 65.1563 182.205 65.51 181.481 65.7681C180.757 66.0177 179.92 66.1428 178.972 66.1428ZM180.495 62.4723C181.277 62.4723 181.968 62.3184 182.567 62.0104C183.166 61.6941 183.636 61.2696 183.978 60.7369C184.319 60.2042 184.49 59.6008 184.49 58.9266V56.8917C184.323 56.9998 184.094 57.0998 183.803 57.1913C183.52 57.2746 183.2 57.3536 182.842 57.4285C182.484 57.4951 182.126 57.5575 181.768 57.6158C181.41 57.6657 181.085 57.7115 180.794 57.7531C180.17 57.8447 179.625 57.9903 179.159 58.19C178.692 58.3898 178.33 58.6603 178.072 59.0016C177.814 59.3345 177.686 59.7506 177.686 60.25C177.686 60.9742 177.948 61.5276 178.472 61.9105C179.005 62.285 179.679 62.4723 180.495 62.4723ZM199.216 54.6944V65.7807H193.897V46.6044H198.965V49.9877H199.19C199.615 48.8724 200.326 47.9902 201.325 47.341C202.324 46.6834 203.535 46.3547 204.958 46.3547C206.29 46.3547 207.451 46.646 208.441 47.2286C209.432 47.8112 210.202 48.6435 210.751 49.7255C211.3 50.7992 211.575 52.0809 211.575 53.5707V65.7807H206.257V54.5196C206.265 53.346 205.965 52.4305 205.357 51.773C204.75 51.1072 203.914 50.7742 202.848 50.7742C202.132 50.7742 201.5 50.9282 200.951 51.2361C200.409 51.5441 199.985 51.9935 199.677 52.5844C199.377 53.1671 199.223 53.8704 199.216 54.6944ZM231.722 52.0726L226.853 52.3722C226.77 51.956 226.591 51.5816 226.316 51.2486C226.041 50.9074 225.679 50.6369 225.23 50.4371C224.789 50.229 224.26 50.125 223.645 50.125C222.82 50.125 222.126 50.2998 221.56 50.6493C220.994 50.9906 220.71 51.4484 220.71 52.0226C220.71 52.4804 220.894 52.8675 221.26 53.1837C221.627 53.5 222.254 53.7539 223.145 53.9453L226.616 54.6444C228.48 55.0273 229.87 55.6432 230.786 56.4922C231.701 57.3411 232.159 58.4564 232.159 59.838C232.159 61.0948 231.789 62.1976 231.048 63.1465C230.315 64.0953 229.308 64.8357 228.026 65.3687C226.753 65.8932 225.284 66.1555 223.619 66.1555C221.081 66.1555 219.059 65.6267 217.552 64.5699C216.054 63.5043 215.176 62.0562 214.918 60.2251L220.149 59.9504C220.307 60.7244 220.69 61.3154 221.297 61.7232C221.905 62.1227 222.683 62.3225 223.632 62.3225C224.564 62.3225 225.313 62.1436 225.879 61.7857C226.454 61.4194 226.745 60.9492 226.753 60.3749C226.745 59.8921 226.541 59.4968 226.141 59.1888C225.742 58.8726 225.126 58.6312 224.293 58.4648L220.973 57.803C219.1 57.4285 217.706 56.7793 216.79 55.8554C215.883 54.9316 215.43 53.7539 215.43 52.3223C215.43 51.0905 215.762 50.0293 216.428 49.1387C217.103 48.2481 218.048 47.5615 219.263 47.0788C220.486 46.596 221.918 46.3547 223.557 46.3547C225.979 46.3547 227.885 46.8665 229.275 47.8902C230.673 48.914 231.489 50.3081 231.722 52.0726ZM239.291 65.7807L234.072 46.6044H239.453L242.425 59.4884H242.6L245.695 46.6044H250.977L254.123 59.4136H254.285L257.206 46.6044H262.575L257.369 65.7807H251.738L248.442 53.7206H248.205L244.909 65.7807H239.291ZM273.67 66.1555C271.698 66.1555 270 65.7554 268.577 64.9567C267.161 64.1494 266.072 63.0091 265.306 61.536C264.54 60.0545 264.157 58.3024 264.157 56.2799C264.157 54.3073 264.54 52.5761 265.306 51.0863C266.072 49.5965 267.15 48.4354 268.539 47.6031C269.937 46.7708 271.577 46.3547 273.458 46.3547C274.723 46.3547 275.901 46.5586 276.991 46.9664C278.09 47.3659 279.047 47.9693 279.863 48.7767C280.687 49.584 281.328 50.5994 281.785 51.8229C282.243 53.0381 282.472 54.4613 282.472 56.0927V57.5534H266.28V54.2574H277.466C277.466 53.4917 277.299 52.8134 276.967 52.2224C276.633 51.6315 276.171 51.1695 275.581 50.8366C274.998 50.4954 274.319 50.3248 273.545 50.3248C272.738 50.3248 272.022 50.512 271.398 50.8866C270.783 51.2528 270.3 51.748 269.95 52.3722C269.601 52.9881 269.421 53.6748 269.413 54.4322V57.5659C269.413 58.5147 269.588 59.3345 269.937 60.0253C270.295 60.7161 270.799 61.2488 271.449 61.6234C272.097 61.9979 272.867 62.1852 273.758 62.1852C274.349 62.1852 274.89 62.1019 275.381 61.9354C275.872 61.769 276.292 61.5193 276.642 61.1864C276.991 60.8534 277.258 60.4456 277.441 59.9629L282.36 60.2875C282.11 61.4694 281.598 62.5014 280.824 63.3837C280.058 64.2576 279.068 64.9398 277.853 65.4313C276.646 65.9136 275.252 66.1555 273.67 66.1555ZM285.943 65.7807V46.6044H291.099V49.9502H291.299C291.648 48.76 292.235 47.8611 293.059 47.2536C293.883 46.6376 294.832 46.3296 295.906 46.3296C296.172 46.3296 296.459 46.3463 296.767 46.3796C297.075 46.4129 297.346 46.4587 297.578 46.517V51.2361C297.329 51.1612 296.984 51.0946 296.542 51.0364C296.101 50.9781 295.697 50.9489 295.331 50.9489C294.549 50.9489 293.85 51.1196 293.234 51.4608C292.626 51.7938 292.144 52.2599 291.786 52.8592C291.436 53.4584 291.261 54.1492 291.261 54.9316V65.7807H285.943ZM316.284 52.0726L311.415 52.3722C311.332 51.956 311.152 51.5816 310.877 51.2486C310.603 50.9074 310.241 50.6369 309.792 50.4371C309.35 50.229 308.822 50.125 308.206 50.125C307.382 50.125 306.687 50.2998 306.121 50.6493C305.555 50.9906 305.272 51.4484 305.272 52.0226C305.272 52.4804 305.456 52.8675 305.821 53.1837C306.188 53.5 306.816 53.7539 307.706 53.9453L311.178 54.6444C313.042 55.0273 314.432 55.6432 315.347 56.4922C316.263 57.3411 316.721 58.4564 316.721 59.838C316.721 61.0948 316.35 62.1976 315.61 63.1465C314.877 64.0953 313.87 64.8357 312.588 65.3687C311.315 65.8932 309.846 66.1555 308.181 66.1555C305.643 66.1555 303.62 65.6267 302.114 64.5699C300.615 63.5043 299.737 62.0562 299.479 60.2251L304.71 59.9504C304.868 60.7244 305.251 61.3154 305.859 61.7232C306.467 62.1227 307.244 62.3225 308.194 62.3225C309.126 62.3225 309.875 62.1436 310.441 61.7857C311.015 61.4194 311.306 60.9492 311.315 60.3749C311.306 59.8921 311.102 59.4968 310.703 59.1888C310.304 58.8726 309.688 58.6312 308.855 58.4648L305.534 57.803C303.662 57.4285 302.268 56.7793 301.352 55.8554C300.445 54.9316 299.991 53.7539 299.991 52.3223C299.991 51.0905 300.324 50.0293 300.99 49.1387C301.664 48.2481 302.609 47.5615 303.824 47.0788C305.047 46.596 306.479 46.3547 308.118 46.3547C310.541 46.3547 312.447 46.8665 313.836 47.8902C315.235 48.914 316.05 50.3081 316.284 52.0726Z" fill="white"/>
<path d="M323.178 66.1056C322.354 66.1056 321.647 65.8138 321.056 65.2316C320.473 64.6402 320.182 63.933 320.182 63.109C320.182 62.2933 320.473 61.5942 321.056 61.0116C321.647 60.429 322.354 60.1377 323.178 60.1377C323.978 60.1377 324.677 60.429 325.276 61.0116C325.875 61.5942 326.175 62.2933 326.175 63.109C326.175 63.6583 326.033 64.1619 325.75 64.6198C325.475 65.0692 325.113 65.4313 324.664 65.7055C324.215 65.972 323.72 66.1056 323.178 66.1056ZM336.01 66.1428C334.786 66.1428 333.696 65.9305 332.739 65.5058C331.781 65.0734 331.024 64.4363 330.466 63.5959C329.917 62.747 329.642 61.69 329.642 60.4248C329.642 59.3595 329.838 58.4648 330.229 57.7406C330.62 57.0165 331.153 56.4339 331.827 55.9927C332.501 55.5517 333.267 55.2187 334.124 54.994C334.99 54.7693 335.897 54.6112 336.846 54.5196C337.961 54.4031 338.86 54.2949 339.542 54.195C340.225 54.0868 340.72 53.9286 341.028 53.7206C341.336 53.5125 341.49 53.2045 341.49 52.7967V52.7218C341.49 51.9311 341.24 51.3194 340.741 50.8866C340.25 50.4537 339.551 50.2374 338.644 50.2374C337.687 50.2374 336.925 50.4496 336.359 50.8741C335.793 51.2902 335.418 51.8146 335.236 52.4471L330.316 52.0477C330.566 50.8824 331.057 49.8753 331.789 49.0264C332.522 48.1691 333.466 47.5115 334.624 47.0538C335.789 46.5877 337.138 46.3547 338.669 46.3547C339.734 46.3547 340.754 46.4795 341.728 46.7292C342.709 46.9788 343.579 47.3659 344.337 47.8902C345.103 48.4146 345.706 49.0888 346.147 49.9127C346.588 50.7284 346.808 51.7064 346.808 52.8466V65.7807H341.765V63.1215H341.615C341.307 63.7208 340.895 64.2493 340.379 64.707C339.863 65.1563 339.243 65.51 338.518 65.7681C337.795 66.0177 336.958 66.1428 336.01 66.1428ZM337.533 62.4723C338.315 62.4723 339.006 62.3184 339.605 62.0104C340.204 61.6941 340.674 61.2696 341.016 60.7369C341.357 60.2042 341.528 59.6008 341.528 58.9266V56.8917C341.361 56.9998 341.132 57.0998 340.841 57.1913C340.558 57.2746 340.238 57.3536 339.88 57.4285C339.522 57.4951 339.164 57.5575 338.806 57.6158C338.448 57.6657 338.123 57.7115 337.832 57.7531C337.208 57.8447 336.663 57.9903 336.197 58.19C335.731 58.3898 335.368 58.6603 335.11 59.0016C334.852 59.3345 334.724 59.7506 334.724 60.25C334.724 60.9742 334.986 61.5276 335.51 61.9105C336.043 62.285 336.717 62.4723 337.533 62.4723ZM350.934 65.7807V46.6044H356.253V65.7807H350.934ZM353.606 44.1323C352.816 44.1323 352.137 43.8702 351.571 43.3458C351.014 42.8132 350.735 42.1764 350.735 41.4357C350.735 40.7033 351.014 40.0749 351.571 39.5505C352.137 39.0178 352.816 38.7515 353.606 38.7515C354.397 38.7515 355.072 39.0178 355.629 39.5505C356.195 40.0749 356.478 40.7033 356.478 41.4357C356.478 42.1764 356.195 42.8132 355.629 43.3458C355.072 43.8702 354.397 44.1323 353.606 44.1323Z" fill="#18D6B3"/>
<path d="M0 23.8743L24.6766 3.62402C26.1722 2.12402 27.6678 2.12402 29.1633 3.62402L47.10 18.2492L41.5017 23.8743L28.0417 12.6241L6.72998 30.6244L0 23.8743Z" fill="white"/>
</svg>
