<svg width="512" height="512" viewBox="0 0 512 512" fill="none" xmlns="http://www.w3.org/2000/svg">
<path d="M51.1992 162.133C51.1992 77.3033 123.792 8.5332 213.333 8.5332L230.399 17.0665V42.6665H213.333C142.642 42.6665 85.3326 96.1535 85.3326 162.133V179.2H51.1992V162.133ZM460.799 162.133C460.799 77.3033 388.206 8.5332 298.666 8.5332L281.599 17.0665V42.6665H298.666C369.356 42.6665 426.666 96.1535 426.666 162.133V179.2H460.799V162.133Z" fill="#122359"/>
<path d="M85.333 435.199V486.399C85.333 490.926 87.1311 495.267 90.3317 498.467C93.5323 501.668 97.8733 503.466 102.4 503.466H153.6V435.199H85.333ZM426.666 435.199V486.399C426.666 490.926 424.868 495.267 421.668 498.467C418.467 501.668 414.126 503.466 409.6 503.466H358.4V435.199H426.666Z" fill="#CED7DD"/>
<path d="M136.533 467.541C129.553 469.526 122.207 469.863 115.074 468.528C107.942 467.192 101.216 464.22 95.4262 459.844C89.6367 455.469 84.9412 449.81 81.7091 443.313C78.477 436.816 76.7966 429.657 76.7998 422.4C76.7998 396.459 97.7918 375.467 123.733 375.467C138.325 375.467 151.296 382.037 159.829 392.448L136.533 467.541ZM352.17 392.448C360.704 382.037 373.674 375.467 388.266 375.467C414.208 375.467 435.2 396.459 435.2 422.4C435.203 429.657 433.523 436.816 430.291 443.313C427.058 449.81 422.363 455.469 416.573 459.844C410.784 464.22 404.058 467.192 396.925 468.528C389.792 469.863 382.447 469.526 375.466 467.541L352.17 392.448Z" fill="#B3C1C9"/>
<path d="M213.333 324.266H298.666V383.999H213.333V324.266Z" fill="#CED7DD"/>
<path d="M324.266 110.934C376.149 110.934 418.133 152.918 418.133 204.8L426.666 221.867L418.133 238.934C418.133 290.816 376.149 332.8 324.266 332.8H187.733C135.85 332.8 93.8663 290.816 93.8663 238.934L85.333 221.867L93.8663 204.8C93.8663 152.918 135.85 110.934 187.733 110.934H324.266Z" fill="#E4EAEF"/>
<path d="M324.267 162.133H187.733C154.744 162.133 128 188.876 128 221.866C128 254.856 154.744 281.599 187.733 281.599H324.267C357.256 281.599 384 254.856 384 221.866C384 188.876 357.256 162.133 324.267 162.133Z" fill="#122359"/>
<path d="M204.8 375.467H307.2C344.875 375.467 375.467 406.059 375.467 443.733V486.4C375.467 490.926 373.668 495.267 370.468 498.468C367.267 501.669 362.926 503.467 358.4 503.467H153.6C149.074 503.467 144.733 501.669 141.532 498.468C138.331 495.267 136.533 490.926 136.533 486.4V443.733C136.533 406.059 167.125 375.467 204.8 375.467Z" fill="#E4EAEF"/>
<path d="M308.224 150.75C315.486 140.911 324.241 125.961 324.266 111.011C324.273 106.475 322.48 102.122 319.28 98.908C316.08 95.6937 311.735 93.8807 307.2 93.8672H204.791C200.256 93.8807 195.911 95.6937 192.711 98.908C189.511 102.122 187.718 106.475 187.725 111.011C187.75 125.97 196.505 140.92 203.767 150.75C206.415 154.302 209.86 157.183 213.825 159.16C217.79 161.137 222.164 162.156 226.594 162.134H285.389C294.374 162.134 302.89 157.978 308.224 150.75Z" fill="#CED7DD"/>
<path d="M187.733 238.934C197.158 238.934 204.799 231.293 204.799 221.867C204.799 212.442 197.158 204.801 187.733 204.801C178.307 204.801 170.666 212.442 170.666 221.867C170.666 231.293 178.307 238.934 187.733 238.934Z" fill="#71FFE4"/>
<path d="M324.266 238.934C333.692 238.934 341.333 231.293 341.333 221.867C341.333 212.442 333.692 204.801 324.266 204.801C314.84 204.801 307.199 212.442 307.199 221.867C307.199 231.293 314.84 238.934 324.266 238.934Z" fill="#71FFE4"/>
<path d="M213.333 8.5332H298.666V42.6665C298.666 44.9297 297.767 47.1002 296.167 48.7005C294.567 50.3008 292.396 51.1999 290.133 51.1999H221.866C219.603 51.1999 217.433 50.3008 215.832 48.7005C214.232 47.1002 213.333 44.9297 213.333 42.6665V8.5332Z" fill="#23468E"/>
<path d="M426.667 341.333H375.467V324.267H426.667C428.93 324.267 431.1 323.368 432.701 321.767C434.301 320.167 435.2 317.996 435.2 315.733V264.533H452.267V315.733C452.267 329.847 440.781 341.333 426.667 341.333Z" fill="#CED7DD"/>
<path d="M460.799 281.599H426.666C424.403 281.599 422.232 280.7 420.632 279.1C419.032 277.5 418.133 275.329 418.133 273.066V170.666C418.133 168.403 419.032 166.232 420.632 164.632C422.232 163.032 424.403 162.133 426.666 162.133H460.799C474.931 162.133 486.399 173.602 486.399 187.733V255.999C486.399 270.131 474.931 281.599 460.799 281.599Z" fill="#23468E"/>
<path d="M358.4 315.732H384C386.263 315.732 388.433 316.631 390.034 318.232C391.634 319.832 392.533 322.003 392.533 324.266V341.332C392.533 343.596 391.634 345.766 390.034 347.366C388.433 348.967 386.263 349.866 384 349.866H358.4C353.873 349.866 349.532 348.068 346.332 344.867C343.131 341.666 341.333 337.325 341.333 332.799C341.333 328.273 343.131 323.932 346.332 320.731C349.532 317.53 353.873 315.732 358.4 315.732Z" fill="#122359"/>
<path d="M51.1996 162.133H85.3329C87.5961 162.133 89.7666 163.032 91.3669 164.632C92.9672 166.232 93.8663 168.403 93.8663 170.666V273.066C93.8663 275.329 92.9672 277.5 91.3669 279.1C89.7666 280.7 87.5961 281.599 85.3329 281.599H51.1996C37.0684 281.599 25.5996 270.131 25.5996 255.999V187.733C25.5996 173.602 37.0684 162.133 51.1996 162.133Z" fill="#23468E"/>
</svg>
